<?xml version="1.0" encoding="iso-8859-1"?>
<!-- Uploaded to: SVG Repo, www.svgrepo.com, Generator: SVG Repo Mixer Tools -->
<!DOCTYPE svg PUBLIC "-//W3C//DTD SVG 1.1//EN" "http://www.w3.org/Graphics/SVG/1.1/DTD/svg11.dtd">
<svg fill="#000000" height="800px" width="800px" version="1.1" id="Capa_1" xmlns="http://www.w3.org/2000/svg" xmlns:xlink="http://www.w3.org/1999/xlink" 
	 viewBox="0 0 253.334 253.334" xml:space="preserve">
<g>
	<path d="M160.44,89.902H74.524V52.345C74.524,34.51,89.034,20,106.87,20s32.346,14.51,32.346,32.345V62.57c0,5.523,4.478,10,10,10
		s10-4.477,10-10V52.345C159.215,23.482,135.733,0,106.87,0S54.524,23.482,54.524,52.345v37.557h-1.225
		c-15.244,0-27.646,12.402-27.646,27.646v106.908c0,15.923,12.954,28.878,28.878,28.878h104.678
		c15.924,0,28.878-12.955,28.878-28.878V117.548C188.087,102.304,175.684,89.902,160.44,89.902z M168.087,224.456
		c0,4.896-3.982,8.878-8.878,8.878H54.531c-4.896,0-8.878-3.982-8.878-8.878V117.548c0-4.216,3.431-7.646,7.646-7.646H160.44
		c4.216,0,7.646,3.43,7.646,7.646V224.456z"/>
	<path d="M106.87,134.44c-11.409,0-20.691,9.282-20.691,20.691c0,7.783,4.324,14.57,10.691,18.102v25.562c0,5.523,4.478,10,10,10
		s10-4.477,10-10v-25.562c6.368-3.532,10.691-10.319,10.691-18.102C127.561,143.722,118.279,134.44,106.87,134.44z"/>
	<path d="M178.588,54.182c1.221,0.49,2.48,0.721,3.72,0.721c3.965,0,7.718-2.375,9.284-6.28l7.445-18.563
		c2.056-5.126-0.433-10.948-5.559-13.004c-5.125-2.056-10.948,0.433-13.004,5.559l-7.445,18.563
		C170.974,46.304,173.462,52.125,178.588,54.182z"/>
	<path d="M190.093,66.501c1.623,3.796,5.317,6.071,9.2,6.071c1.312,0,2.645-0.259,3.926-0.808l18.39-7.862
		c5.078-2.171,7.436-8.047,5.265-13.126c-2.172-5.078-8.052-7.436-13.126-5.264l-18.39,7.862
		C190.28,55.546,187.922,61.422,190.093,66.501z"/>
	<path d="M221.085,85.232l-18.563-7.445c-5.126-2.056-10.948,0.432-13.004,5.559c-2.056,5.126,0.433,10.948,5.559,13.004
		l18.563,7.445c1.221,0.49,2.48,0.721,3.72,0.721c3.965,0,7.718-2.375,9.284-6.28C228.699,93.11,226.211,87.288,221.085,85.232z"/>
</g>
</svg>